<?xml version="1.0" encoding="utf-8"?>
<!-- Generator: Adobe Illustrator 17.0.0, SVG Export Plug-In . SVG Version: 6.00 Build 0)  -->
<!DOCTYPE svg PUBLIC "-//W3C//DTD SVG 1.0//EN" "http://www.w3.org/TR/2001/REC-SVG-20010904/DTD/svg10.dtd">
<svg version="1.0" id="Camada_1" xmlns="http://www.w3.org/2000/svg" xmlns:xlink="http://www.w3.org/1999/xlink" x="0px" y="0px"
	 width="393.936px" height="87.951px" viewBox="0 0 393.936 87.951" enable-background="new 0 0 393.936 87.951"
	 xml:space="preserve">
<g>
	<path fill="#F31D4F" d="M54.767,19.264c5.89,0,10.993,2.159,14.331,5.497l-7.656,10.405c-2.16-1.768-3.927-2.356-5.693-2.356
		c-6.282,0-10.013,4.712-10.013,12.172s4.123,12.172,9.424,12.172c3.141,0,5.693-1.57,7.853-3.141l6.675,10.601
		c-4.908,4.319-11.387,6.086-16.491,6.086c-13.938,0-24.735-9.423-24.735-25.718C28.46,28.688,40.827,19.264,54.767,19.264z"/>
	<path fill="#F31D4F" d="M78.422,53.423c4.516,3.338,8.54,4.908,11.976,4.908c3.534,0,4.908-0.981,4.908-2.944
		c0-2.553-4.516-3.73-9.423-5.693c-5.693-2.258-12.368-6.479-12.368-14.527c0-9.62,7.853-15.902,19.436-15.902
		c8.049,0,13.742,3.239,18.062,6.479l-7.461,10.013c-3.533-2.553-6.969-4.123-10.012-4.123c-2.847,0-4.319,0.785-4.319,2.748
		c0,2.553,4.319,3.534,9.228,5.301c5.89,2.16,12.564,5.89,12.564,14.725c0,9.227-7.265,16.294-21.007,16.294
		c-6.282,0-13.938-2.748-19.043-6.871L78.422,53.423z"/>
	<path fill="#F31D4F" d="M120.336,53.423c4.516,3.338,8.54,4.908,11.976,4.908c3.534,0,4.908-0.981,4.908-2.944
		c0-2.553-4.516-3.73-9.423-5.693c-5.693-2.258-12.368-6.479-12.368-14.527c0-9.62,7.853-15.902,19.436-15.902
		c8.049,0,13.742,3.239,18.062,6.479l-7.461,10.013c-3.533-2.553-6.969-4.123-10.012-4.123c-2.847,0-4.319,0.785-4.319,2.748
		c0,2.553,4.319,3.534,9.228,5.301c5.89,2.16,12.564,5.89,12.564,14.725c0,9.227-7.265,16.294-21.007,16.294
		c-6.282,0-13.938-2.748-19.043-6.871L120.336,53.423z"/>
	<path fill="#F31D4F" d="M176.583,19.264c5.301,0,8.441,1.963,11.387,4.908l-0.59-7.067V1.202h16.884v68.319h-13.742l-1.178-4.516
		h-0.393c-3.338,3.338-8.05,5.693-12.368,5.693c-12.172,0-20.024-9.815-20.024-25.718C156.559,28.884,166.57,19.264,176.583,19.264z
		 M181.098,56.957c2.553,0,4.516-0.785,6.282-3.534V35.362c-1.963-1.768-4.515-2.356-6.675-2.356c-3.533,0-6.871,3.142-6.871,11.779
		C173.834,53.619,176.583,56.957,181.098,56.957z"/>
	<path fill="#F31D4F" d="M238.325,37.718c-0.393-3.534-2.553-5.104-6.871-5.104c-3.534,0-7.264,1.374-12.368,4.123l-5.89-10.994
		c6.871-4.123,13.938-6.479,21.595-6.479c12.761,0,20.418,6.871,20.418,22.97v27.288h-13.743l-1.178-4.712h-0.393
		c-3.926,3.534-8.245,5.89-13.546,5.89c-9.227,0-14.724-7.067-14.724-15.116C211.626,45.374,219.479,39.681,238.325,37.718z
		 M232.239,57.742c2.748,0,4.319-1.374,6.086-3.337V47.73c-8.049,1.178-10.602,3.729-10.602,6.479
		C227.724,56.466,229.294,57.742,232.239,57.742z"/>
	<path fill="#F31D4F" d="M269.835,74.822c4.516,0,6.675-1.963,7.656-4.908l0.589-2.159l-18.65-47.313h16.884l5.89,18.847
		c1.374,4.516,2.355,9.031,3.533,13.938h0.393c0.982-4.711,1.964-9.227,3.142-13.938l4.908-18.847h16.098l-16.49,48.295
		c-5.104,13.251-10.405,19.239-22.577,19.239c-3.337,0-5.301-0.393-7.46-0.981l2.944-12.761
		C267.577,74.43,268.854,74.822,269.835,74.822z"/>
	<path fill="#FFFFFF" d="M338.547,54.209c0-3.338-2.16-6.872-8.442-7.068v-9.815c6.282-0.196,8.442-3.73,8.442-7.067
		c0-6.086-0.981-9.031-0.981-15.902c0-10.797,3.926-14.331,12.957-14.331h6.871v8.834h-1.57c-3.633,0-4.712,0.981-4.712,6.086
		c0,5.007,0.393,9.62,0.393,15.313c0,7.853-2.65,10.601-7.853,11.779v0.393c5.202,1.178,7.853,3.926,7.853,11.779
		c0,5.692-0.393,10.307-0.393,15.312c0,5.104,1.079,6.086,4.712,6.086h1.57v8.834h-6.871c-9.031,0-12.957-3.533-12.957-14.331
		C337.565,63.239,338.547,60.295,338.547,54.209z"/>
	<path fill="#FFFFFF" d="M366.718,75.607c3.632,0,4.712-0.981,4.712-6.086c0-5.006-0.393-9.62-0.393-15.312
		c0-7.854,2.65-10.602,7.853-11.779v-0.393c-5.202-1.179-7.853-3.927-7.853-11.779c0-5.693,0.393-10.307,0.393-15.313
		c0-5.104-1.08-6.086-4.712-6.086h-1.57V0.024h6.871c9.03,0,12.957,3.534,12.957,14.331c0,6.871-0.981,9.816-0.981,15.902
		c0,3.337,2.159,6.871,8.441,7.067v9.815c-6.282,0.196-8.441,3.73-8.441,7.068c0,6.086,0.981,9.03,0.981,15.901
		c0,10.798-3.927,14.331-12.957,14.331h-6.871v-8.834H366.718z"/>
	<circle fill="#F31D4F" cx="11.856" cy="60.518" r="10.292"/>
</g>
</svg>
