<?xml version="1.0" encoding="utf-8"?>
<!-- Generator: Adobe Illustrator 15.0.0, SVG Export Plug-In . SVG Version: 6.00 Build 0)  -->
<!DOCTYPE svg PUBLIC "-//W3C//DTD SVG 1.1//EN" "http://www.w3.org/Graphics/SVG/1.1/DTD/svg11.dtd">
<svg version="1.1" id="Layer_1" xmlns="http://www.w3.org/2000/svg" xmlns:xlink="http://www.w3.org/1999/xlink" x="0px" y="0px"
	 width="479.623px" height="89.052px" viewBox="0 0 479.623 89.052" enable-background="new 0 0 479.623 89.052"
	 xml:space="preserve">
<path fill="#D22F27" d="M144.504,53.547v1.922c0,0.938-0.173,1.898-0.518,2.884c-0.345,0.986-0.863,1.886-1.553,2.699
	c-0.69,0.813-1.552,1.479-2.588,1.996c-1.035,0.518-2.267,0.776-3.696,0.776h-13.088h-0.148h-3.549V10.218h6.285h10.5
	c1.429,0,2.661,0.259,3.696,0.777c1.036,0.517,1.898,1.183,2.588,1.996c0.69,0.812,1.208,1.713,1.553,2.698
	c0.345,0.986,0.518,1.947,0.518,2.884v1.923V53.547z M138.293,20.496V19.83c0-1.232-0.382-2.279-1.146-3.143
	c-0.765-0.862-1.787-1.294-3.069-1.294h-4.436h-3.993v43.255h3.993h4.436c1.282,0,2.304-0.432,3.069-1.294
	c0.764-0.862,1.146-1.886,1.146-3.069v-0.738V20.496z M163.687,24.637c2.958,0,5.274,0.357,6.95,1.071
	c1.677,0.715,2.933,1.565,3.771,2.552c0.838,0.986,1.356,1.984,1.553,2.994c0.197,1.011,0.295,1.787,0.295,2.329v1.849v0.074v1.626
	c0,0.838-0.16,1.774-0.48,2.81s-1.072,2.145-2.255,3.328c-0.542,0.591-1.159,1.035-1.848,1.33c-0.691,0.296-1.307,0.518-1.849,0.666
	c-0.641,0.197-1.306,0.296-1.996,0.296h-5.62c-1.281,0-2.415,0.468-3.401,1.404c-0.986,0.937-1.479,2.096-1.479,3.476v3.327
	c0,1.183,0.222,2.12,0.666,2.81c0.197,0.346,0.419,0.641,0.665,0.888c0.246,0.246,0.616,0.469,1.109,0.665
	c0.395,0.197,0.9,0.37,1.516,0.518c0.616,0.148,1.417,0.223,2.403,0.223c1.281,0,2.292-0.137,3.032-0.407
	c0.739-0.271,1.257-0.505,1.552-0.702c0.641-0.493,1.085-1.085,1.331-1.774c0.247-0.69,0.37-1.43,0.37-2.219h6.284v1.774
	c0,1.331-0.283,2.563-0.85,3.697c-0.566,1.134-1.441,2.119-2.624,2.957c-0.838,0.592-1.997,1.109-3.476,1.553
	c-1.478,0.444-3.352,0.666-5.619,0.666c-1.676,0-3.13-0.136-4.363-0.407c-1.232-0.271-2.304-0.616-3.215-1.035
	c-0.913-0.419-1.665-0.899-2.256-1.441c-0.592-0.542-1.084-1.084-1.479-1.627c-0.887-1.281-1.306-2.76-1.257-4.437v-1.7v-3.327
	V35.506v-0.074v-1.849c0-0.592,0.099-1.38,0.296-2.366c0.198-0.985,0.715-1.971,1.553-2.957s2.095-1.837,3.771-2.552
	C158.413,24.994,160.729,24.637,163.687,24.637 M169.972,35.432v-0.666c0-0.443-0.062-0.924-0.185-1.441
	c-0.123-0.518-0.406-1.011-0.85-1.479c-0.444-0.469-1.072-0.863-1.886-1.184c-0.813-0.32-1.885-0.48-3.216-0.48
	c-1.38,0-2.501,0.16-3.365,0.48c-0.862,0.32-1.527,0.702-1.996,1.146c-0.468,0.443-0.776,0.924-0.924,1.441
	s-0.222,0.974-0.222,1.369v0.812v0.074v0.591v6.211c0.099-0.443,0.321-0.801,0.666-1.072c0.345-0.271,0.739-0.48,1.183-0.628
	c0.443-0.148,0.887-0.247,1.331-0.296c0.443-0.05,0.788-0.074,1.035-0.074h4.214c1.134,0,2.12-0.405,2.958-1.22
	c0.838-0.813,1.257-1.787,1.257-2.921v-0.591V35.432z M200.32,35.357c0-1.43-0.431-2.649-1.294-3.66s-2.526-1.516-4.991-1.516
	c-1.232,0-2.255,0.136-3.069,0.407c-0.813,0.271-1.466,0.628-1.959,1.071c-0.493,0.444-0.838,0.925-1.035,1.442
	c-0.197,0.519-0.296,1.022-0.296,1.517v1.403c0,0.592,0.111,1.109,0.333,1.553c0.222,0.444,0.48,0.839,0.776,1.184
	c0.296,0.345,0.604,0.604,0.925,0.776c0.32,0.173,0.579,0.308,0.776,0.406c0.197,0.05,0.69,0.223,1.479,0.518
	c0.789,0.296,1.712,0.629,2.772,0.998c1.061,0.371,2.157,0.752,3.291,1.146c1.133,0.395,2.144,0.739,3.031,1.035
	c1.775,0.641,3.143,1.726,4.104,3.253c0.961,1.528,1.442,3.229,1.442,5.103v3.475c0,0.888-0.161,1.861-0.481,2.921
	c-0.32,1.061-0.949,2.033-1.886,2.921c-0.936,0.887-2.217,1.627-3.844,2.218c-1.627,0.593-3.746,0.888-6.359,0.888
	c-2.612,0-4.732-0.295-6.359-0.888c-1.627-0.591-2.908-1.331-3.845-2.218c-0.936-0.888-1.565-1.86-1.885-2.921
	c-0.32-1.06-0.481-2.033-0.481-2.921v-2.145h6.211c0,1.775,0.444,3.144,1.331,4.104c0.888,0.961,2.563,1.442,5.028,1.442
	c2.415,0,4.067-0.456,4.954-1.368c0.888-0.912,1.331-2.305,1.331-4.179c0-0.937-0.172-1.712-0.518-2.328
	c-0.345-0.616-0.739-1.122-1.183-1.516c-0.542-0.445-1.133-0.789-1.774-1.035c-1.479-0.543-2.859-1.035-4.141-1.479
	c-1.134-0.395-2.23-0.776-3.29-1.146c-1.06-0.37-1.836-0.629-2.329-0.776c-0.493-0.197-1.06-0.493-1.701-0.888
	s-1.257-0.912-1.848-1.553c-0.592-0.641-1.085-1.417-1.479-2.329c-0.394-0.912-0.592-1.959-0.592-3.143v-3.549
	c0-2.563,1.011-4.695,3.032-6.396c2.021-1.701,5.2-2.551,9.538-2.551c2.218,0,4.116,0.234,5.694,0.702
	c1.577,0.468,2.883,1.108,3.918,1.923c1.035,0.812,1.787,1.762,2.255,2.846c0.469,1.085,0.703,2.243,0.703,3.476v1.774H200.32z
	 M214.032,25.228h6.211v38.597h-6.211V25.228z M214.032,10.292h6.211v7.468h-6.211V10.292z M240.239,24.637
	c2.958,0,5.274,0.357,6.95,1.071c1.676,0.715,2.934,1.565,3.771,2.552s1.355,1.984,1.553,2.994c0.197,1.011,0.295,1.787,0.295,2.329
	v1.257v0.666v1.626c0,0.838-0.146,1.787-0.443,2.847c-0.297,1.061-1.035,2.156-2.219,3.291c-0.59,0.591-1.219,1.035-1.885,1.33
	c-0.666,0.296-1.27,0.518-1.811,0.666c-0.643,0.197-1.307,0.296-1.998,0.296h-5.693c-1.281,0-2.415,0.443-3.4,1.33
	c-0.985,0.888-1.479,2.071-1.479,3.55v1.553c0,0.541,0.11,0.998,0.333,1.368c0.221,0.369,0.492,0.665,0.813,0.887
	c0.319,0.222,0.641,0.395,0.961,0.518c0.319,0.123,0.554,0.234,0.701,0.333c0.197,0.049,0.69,0.209,1.479,0.48
	s1.701,0.592,2.735,0.961c1.035,0.369,2.132,0.752,3.289,1.146c1.16,0.395,2.184,0.739,3.07,1.035
	c1.775,0.641,3.143,1.726,4.104,3.253c0.961,1.528,1.441,3.229,1.441,5.103v3.475c0,0.888-0.16,1.861-0.48,2.921
	s-0.949,2.033-1.885,2.921c-0.938,0.887-2.219,1.626-3.846,2.218s-3.746,0.888-6.358,0.888c-2.612,0-4.732-0.296-6.358-0.888
	c-1.627-0.592-2.909-1.331-3.845-2.218c-0.937-0.888-1.565-1.861-1.885-2.921c-0.321-1.06-0.481-2.033-0.481-2.921v-2.145V53.251
	v-1.184v-0.073v-3.846V35.506V34.84v-1.257c0-0.542,0.098-1.318,0.295-2.329c0.197-1.01,0.715-2.008,1.553-2.994
	c0.838-0.986,2.095-1.837,3.771-2.552C234.965,24.994,237.282,24.637,240.239,24.637 M235.729,60.94
	c-0.345-0.099-0.715-0.271-1.108-0.518c-0.395-0.246-0.642-0.615-0.739-1.108v9.094c0,1.774,0.443,3.143,1.331,4.104
	c0.887,0.961,2.562,1.441,5.027,1.441c2.415,0,4.067-0.456,4.954-1.368c0.887-0.911,1.332-2.304,1.332-4.178
	c0-0.937-0.174-1.713-0.518-2.328c-0.346-0.616-0.74-1.122-1.184-1.517c-0.543-0.442-1.135-0.788-1.775-1.035
	c-0.789-0.296-1.627-0.591-2.513-0.887c-0.739-0.247-1.528-0.53-2.366-0.851S236.518,61.188,235.729,60.94 M246.525,34.84
	c0-0.443-0.062-0.924-0.186-1.441s-0.395-1.023-0.814-1.517c-0.418-0.492-1.035-0.899-1.848-1.22s-1.91-0.48-3.291-0.48
	c-1.38,0-2.502,0.16-3.364,0.48s-1.527,0.702-1.995,1.146c-0.47,0.443-0.777,0.924-0.926,1.441
	c-0.147,0.518-0.221,0.998-0.221,1.442v0.147v0.666v0.591v6.285c0.098-0.443,0.32-0.8,0.665-1.072
	c0.345-0.271,0.752-0.48,1.22-0.629c0.468-0.147,0.924-0.246,1.368-0.295c0.443-0.05,0.764-0.074,0.961-0.074h4.29
	c1.133,0,2.105-0.406,2.92-1.22c0.812-0.813,1.221-1.812,1.221-2.995v-0.591V34.84z M284.119,63.824h-6.285V35.432v-0.666
	c0-0.443-0.062-0.924-0.186-1.441s-0.406-1.011-0.85-1.479c-0.443-0.469-1.072-0.863-1.885-1.184c-0.814-0.32-1.887-0.48-3.217-0.48
	c-1.381,0-2.502,0.16-3.365,0.48c-0.861,0.32-1.527,0.702-1.996,1.146c-0.469,0.443-0.775,0.924-0.924,1.441
	s-0.223,0.974-0.223,1.369v0.812v28.393h-6.283v-28.91v-1.331c0-0.592,0.098-1.38,0.295-2.366c0.197-0.985,0.727-1.971,1.59-2.957
	s2.131-1.837,3.809-2.552c1.676-0.714,3.992-1.071,6.949-1.071s5.275,0.357,6.951,1.071c1.676,0.715,2.932,1.565,3.77,2.552
	s1.355,1.984,1.553,2.994c0.197,1.011,0.297,1.787,0.297,2.329v0.739V63.824z M324.375,20.422v-0.813
	c0-0.443-0.074-0.924-0.223-1.441c-0.146-0.518-0.455-0.998-0.924-1.442c-0.469-0.443-1.121-0.825-1.959-1.146
	c-0.838-0.321-1.973-0.481-3.402-0.481c-1.33,0-2.402,0.16-3.215,0.481c-0.814,0.32-1.443,0.727-1.887,1.22s-0.727,0.998-0.85,1.516
	s-0.186,0.998-0.186,1.441v0.666v33.125v0.665c0,0.444,0.062,0.925,0.186,1.442s0.406,1.011,0.85,1.479
	c0.443,0.469,1.072,0.863,1.887,1.183c0.812,0.321,1.885,0.481,3.215,0.481c1.43,0,2.564-0.16,3.402-0.481
	c0.838-0.319,1.49-0.702,1.959-1.146s0.777-0.924,0.924-1.442c0.148-0.518,0.223-0.974,0.223-1.367v-0.813h6.285v1.849
	c0,0.592-0.1,1.38-0.297,2.366c-0.197,0.985-0.715,1.972-1.553,2.957c-0.838,0.986-2.094,1.836-3.77,2.551s-3.994,1.072-6.951,1.072
	s-5.273-0.357-6.949-1.072c-1.678-0.715-2.947-1.564-3.809-2.551c-0.863-0.985-1.393-1.984-1.59-2.994
	c-0.197-1.011-0.297-1.787-0.297-2.329v-1.849V20.422v-1.923c0-0.542,0.1-1.318,0.297-2.329c0.197-1.01,0.727-2.01,1.59-2.994
	c0.861-0.986,2.131-1.836,3.809-2.551c1.676-0.715,3.992-1.072,6.949-1.072s5.275,0.357,6.951,1.072s2.932,1.564,3.77,2.551
	c0.838,0.984,1.355,1.984,1.553,2.994c0.197,1.011,0.297,1.787,0.297,2.329v1.923H324.375z M360.267,54.064v1.331
	c0,0.592-0.098,1.38-0.295,2.366c-0.197,0.985-0.715,1.972-1.553,2.957c-0.838,0.986-2.096,1.836-3.771,2.551
	s-3.992,1.072-6.949,1.072c-2.959,0-5.275-0.357-6.951-1.072s-2.934-1.564-3.771-2.551c-0.838-0.985-1.355-1.984-1.553-2.994
	c-0.195-1.011-0.295-1.787-0.295-2.329v-0.813V25.154h6.211v28.318h0.074v0.739c0,0.395,0.061,0.863,0.186,1.405
	c0.123,0.543,0.393,1.048,0.812,1.516c0.418,0.469,1.035,0.863,1.848,1.183c0.814,0.321,1.91,0.481,3.291,0.481
	c1.43,0,2.562-0.16,3.4-0.481c0.838-0.319,1.48-0.702,1.924-1.146s0.738-0.924,0.887-1.442c0.148-0.518,0.223-0.998,0.223-1.442
	v-0.812h0.072V25.154h6.211V54.064z M368.73,10.218h6.211v53.605h-6.211V10.218z M398.857,58.279v5.545
	c-2.959,0-5.275-0.357-6.951-1.072s-2.945-1.564-3.809-2.551c-0.861-0.985-1.391-1.984-1.588-2.994
	c-0.197-1.011-0.297-1.787-0.297-2.329v-1.331V29.886h-4.732v-5.249h4.732v-9.834h6.285v9.834h6.359v5.249h-6.359v23.069v0.666
	c0,0.443,0.062,0.924,0.186,1.441s0.406,1.023,0.85,1.516c0.443,0.493,1.072,0.899,1.885,1.22c0.814,0.321,1.887,0.481,3.217,0.481
	H398.857z M428.464,54.064v1.331c0,0.592-0.098,1.38-0.295,2.366c-0.197,0.985-0.715,1.972-1.553,2.957
	c-0.838,0.986-2.096,1.836-3.771,2.551s-3.992,1.072-6.949,1.072c-2.959,0-5.275-0.357-6.951-1.072s-2.932-1.564-3.771-2.551
	c-0.838-0.985-1.355-1.984-1.553-2.994c-0.195-1.011-0.295-1.787-0.295-2.329v-0.813V25.154h6.211v28.318h0.074v0.739
	c0,0.395,0.061,0.863,0.186,1.405c0.123,0.543,0.393,1.048,0.812,1.516c0.42,0.469,1.035,0.863,1.848,1.183
	c0.814,0.321,1.91,0.481,3.291,0.481c1.43,0,2.562-0.16,3.4-0.481c0.838-0.319,1.48-0.702,1.924-1.146s0.738-0.924,0.887-1.442
	c0.148-0.518,0.223-0.998,0.223-1.442v-0.812h0.074V25.154h6.209V54.064z M447.574,24.71c0.838,0,1.566-0.012,2.182-0.037
	c0.617-0.024,1.27,0.013,1.959,0.112l-1.404,5.396c-0.592,0-1.084,0.013-1.479,0.037c-0.395,0.025-0.863,0.037-1.404,0.037
	c-1.332,0-2.404,0.172-3.217,0.518s-1.441,0.752-1.885,1.221c-0.445,0.468-0.729,0.96-0.852,1.478s-0.184,0.999-0.184,1.442v0.665
	v28.245h-6.285V35.357v-1.7c0-0.542,0.098-1.318,0.295-2.329s0.715-2.009,1.553-2.995c0.838-0.985,2.096-1.836,3.771-2.551
	S444.617,24.71,447.574,24.71 M467.054,24.637c2.957,0,5.273,0.357,6.949,1.071c1.676,0.715,2.934,1.565,3.771,2.552
	s1.355,1.984,1.553,2.994c0.197,1.011,0.295,1.787,0.295,2.329v1.849v0.074v1.626c0,0.838-0.16,1.774-0.48,2.81
	s-1.072,2.145-2.254,3.328c-0.543,0.591-1.158,1.035-1.85,1.33c-0.689,0.296-1.305,0.518-1.848,0.666
	c-0.641,0.197-1.307,0.296-1.998,0.296h-5.617c-1.283,0-2.416,0.468-3.402,1.404c-0.984,0.937-1.479,2.096-1.479,3.476v3.327
	c0,1.183,0.223,2.12,0.664,2.81c0.199,0.346,0.42,0.641,0.666,0.888c0.248,0.246,0.617,0.469,1.109,0.665
	c0.395,0.197,0.9,0.37,1.516,0.518c0.617,0.148,1.418,0.223,2.404,0.223c1.281,0,2.291-0.137,3.031-0.407
	c0.738-0.271,1.258-0.505,1.553-0.702c0.641-0.493,1.084-1.085,1.33-1.774c0.248-0.69,0.371-1.43,0.371-2.219h6.283v1.774
	c0,1.331-0.283,2.563-0.85,3.697s-1.441,2.119-2.625,2.957c-0.838,0.592-1.996,1.109-3.475,1.553
	c-1.48,0.444-3.352,0.666-5.619,0.666c-1.676,0-3.131-0.136-4.363-0.407c-1.232-0.271-2.305-0.616-3.217-1.035
	c-0.91-0.419-1.662-0.899-2.254-1.441s-1.086-1.084-1.479-1.627c-0.889-1.281-1.307-2.76-1.258-4.437v-1.7v-3.327V35.506v-0.074
	v-1.849c0-0.592,0.1-1.38,0.295-2.366c0.197-0.985,0.717-1.971,1.555-2.957s2.094-1.837,3.77-2.552
	C461.779,24.994,464.095,24.637,467.054,24.637 M473.339,35.432v-0.666c0-0.443-0.062-0.924-0.188-1.441
	c-0.121-0.518-0.404-1.011-0.848-1.479c-0.445-0.469-1.072-0.863-1.887-1.184c-0.812-0.32-1.885-0.48-3.215-0.48
	c-1.381,0-2.502,0.16-3.365,0.48s-1.527,0.702-1.996,1.146c-0.469,0.443-0.777,0.924-0.924,1.441
	c-0.148,0.518-0.223,0.974-0.223,1.369v0.812v0.074v0.591v6.211c0.098-0.443,0.32-0.801,0.664-1.072
	c0.346-0.271,0.74-0.48,1.186-0.628c0.441-0.148,0.887-0.247,1.33-0.296c0.443-0.05,0.789-0.074,1.035-0.074h4.215
	c1.133,0,2.119-0.405,2.957-1.22c0.838-0.813,1.258-1.787,1.258-2.921v-0.591V35.432z"/>
<path fill-rule="evenodd" clip-rule="evenodd" fill="#D22F27" d="M0.342,34.801c-3.658,23.387,22.536,54.483,54.218,54.25
	c6.075-0.045-13.361-11.996,1.833-13.206c32.412-2.582,45.531-20.954,44.178-39.182C97.109-9.979,7.936-13.759,0.342,34.801
	 M6.252,40.579C3.969,58.525,21.345,78.956,45.805,82.687c4.395,0.67-6.785-10.027,5.435-10.521
	c26.57-1.073,38.756-15.893,38.475-30.47C88.978,3.45,11.325,0.701,6.252,40.579"/>
</svg>
