<?xml version="1.0" encoding="utf-8"?>
<!-- Generator: Adobe Illustrator 15.0.0, SVG Export Plug-In . SVG Version: 6.00 Build 0)  -->
<!DOCTYPE svg PUBLIC "-//W3C//DTD SVG 1.1//EN" "http://www.w3.org/Graphics/SVG/1.1/DTD/svg11.dtd">
<svg version="1.1" id="Layer_1" xmlns="http://www.w3.org/2000/svg" xmlns:xlink="http://www.w3.org/1999/xlink" x="0px" y="0px"
	 width="403.973px" height="154.444px" viewBox="0 0 403.973 154.444" enable-background="new 0 0 403.973 154.444"
	 xml:space="preserve">
<g>
	<g>
		<path fill="#201E20" d="M171.854,23.45h12.753v34.84h22.284v11.175h-35.037V23.45z"/>
		<path fill="#201E20" d="M228.256,23.122h12.293l19.589,46.343h-13.673l-3.353-8.217h-17.749l-3.286,8.217h-13.41L228.256,23.122z
			 M239.431,51.322l-5.127-13.081l-5.193,13.081H239.431z"/>
		<path fill="#201E20" d="M264.61,23.45h23.599c5.784,0,9.86,1.446,12.555,4.142c1.841,1.841,2.959,4.272,2.959,7.428v0.132
			c0,5.324-3.024,8.479-7.1,10.255c5.587,1.84,9.137,4.995,9.137,11.24v0.132c0,7.888-6.441,12.687-17.42,12.687H264.61V23.45z
			 M285.054,41.79c3.878,0,6.048-1.314,6.048-4.01v-0.131c0-2.498-1.973-3.944-5.785-3.944h-8.282v8.085H285.054z M286.895,59.209
			c3.878,0,6.113-1.512,6.113-4.207v-0.131c0-2.498-1.973-4.142-6.245-4.142h-9.729v8.479H286.895z"/>
		<path fill="#201E20" d="M170.276,103.561v-0.131c0-13.41,10.32-23.928,24.256-23.928c9.4,0,15.447,3.944,19.523,9.597
			l-9.598,7.429c-2.629-3.287-5.653-5.391-10.058-5.391c-6.441,0-10.978,5.456-10.978,12.161v0.132
			c0,6.901,4.536,12.292,10.978,12.292c4.799,0,7.625-2.235,10.387-5.588l9.597,6.837c-4.338,5.981-10.188,10.386-20.377,10.386
			C180.859,127.357,170.276,117.3,170.276,103.561z"/>
		<path fill="#201E20" d="M216.95,103.561v-0.131c0-13.213,10.649-23.928,24.849-23.928c14.198,0,24.716,10.583,24.716,23.796v0.132
			c0,13.212-10.649,23.927-24.848,23.927C227.468,127.357,216.95,116.774,216.95,103.561z M253.499,103.561v-0.131
			c0-6.64-4.799-12.424-11.832-12.424c-6.968,0-11.636,5.652-11.636,12.292v0.132c0,6.639,4.799,12.424,11.768,12.424
			C248.832,115.854,253.499,110.201,253.499,103.561z"/>
		<path fill="#201E20" d="M273.156,80.422h17.748c16.435,0,25.966,9.466,25.966,22.744v0.132c0,13.278-9.663,23.139-26.229,23.139
			h-17.485V80.422z M291.102,115.13c7.626,0,12.688-4.207,12.688-11.635v-0.132c0-7.362-5.062-11.635-12.688-11.635h-5.192v23.401
			H291.102z"/>
		<path fill="#201E20" d="M323.446,80.422h37.009v10.847h-24.388v6.968h22.087v10.058h-22.087v7.296h24.716v10.847h-37.337V80.422z"
			/>
		<path fill="#201E20" d="M363.809,119.601l7.1-8.48c4.535,3.615,9.597,5.521,14.922,5.521c3.418,0,5.259-1.183,5.259-3.155v-0.131
			c0-1.906-1.512-2.958-7.757-4.404c-9.795-2.235-17.354-4.996-17.354-14.462v-0.131c0-8.546,6.771-14.725,17.814-14.725
			c7.822,0,13.936,2.104,18.932,6.113l-6.376,9.005c-4.207-2.958-8.809-4.535-12.885-4.535c-3.089,0-4.601,1.314-4.601,2.958v0.131
			c0,2.104,1.577,3.024,7.953,4.471c10.584,2.301,17.157,5.719,17.157,14.33v0.131c0,9.4-7.428,14.988-18.603,14.988
			C377.219,127.226,369.462,124.663,363.809,119.601z"/>
	</g>
	<g>
		<path fill="none" d="M112.05,34.123l-4.494-1.667L112.05,34.123c0.407,0.149,0.843,0.172,1.259,0.08
			C112.894,34.294,112.457,34.272,112.05,34.123z"/>
		<polygon fill="none" points="104.312,38.807 104.703,37.756 104.312,38.807 		"/>
		<path fill="none" d="M114.717,33.199c0.076-0.124,0.14-0.256,0.191-0.395l2.428-6.65l-2.428,6.65
			C114.857,32.943,114.793,33.075,114.717,33.199z"/>
		<path fill="#FFFFFF" d="M93.479,22.497l18.022,6.687l3.001-8.213L71.685,5.077l-3,8.213l4.505,1.675
			c1.151,0.425,1.737,1.704,1.31,2.853L33.106,129.349c-1.416,3.816-1.262,7.953,0.434,11.652c1.695,3.694,4.729,6.513,8.542,7.927
			c2.042,0.755,3.825,1.075,5.628,1.075c6.336,0,12.073-3.989,14.28-9.93l40.623-109.452l-10.679-3.963
			c-1.149-0.425-1.736-1.704-1.31-2.853C91.053,22.657,92.333,22.067,93.479,22.497z M83.001,26.766c1.57,0,2.843,1.273,2.843,2.843
			c0,1.57-1.273,2.843-2.843,2.843c-1.57,0-2.843-1.272-2.843-2.843C80.158,28.04,81.431,26.766,83.001,26.766z M74.233,49.168
			c3.272,0,5.925,2.653,5.925,5.926c0,3.271-2.653,5.925-5.925,5.925s-5.925-2.653-5.925-5.925
			C68.308,51.822,70.961,49.168,74.233,49.168z M91.511,44.125c0,2.196-1.781,3.978-3.978,3.978c-2.197,0-3.978-1.781-3.978-3.978
			c0-2.197,1.781-3.978,3.978-3.978C89.729,40.147,91.511,41.927,91.511,44.125z"/>
		<g>
			<path fill="#F15B55" d="M117.76,24.994L117.76,24.994l-0.423,1.16l-2.428,6.65c-0.051,0.139-0.115,0.271-0.191,0.395
				c-0.228,0.373-0.562,0.673-0.965,0.858c-0.143,0.064-0.292,0.111-0.443,0.146c-0.416,0.092-0.852,0.069-1.259-0.08l-4.494-1.667
				l-0.779-0.289l-2.075,5.59l-0.39,1.051l0,0l21.046,36.29l-29.512,50.887h21.458l29.512-50.887L117.76,24.994z"/>
			<polygon fill="#F15B55" points="29.512,24.209 0,75.097 29.512,125.984 29.619,125.984 37.951,103.535 21.458,75.097 
				50.97,24.209 			"/>
		</g>
		<path fill="#201E20" d="M118.117,17.575L71.136,0.138c-0.553-0.204-1.165-0.183-1.702,0.064c-0.538,0.247-0.952,0.698-1.156,1.253
			L63.756,13.84c-0.419,1.149,0.167,2.42,1.313,2.846l4.495,1.669l-31.613,85.18l-8.332,22.449l-0.676,1.821
			c-1.828,4.927-1.631,10.269,0.56,15.048c2.191,4.774,6.109,8.412,11.367,10.359c2.205,0.819,4.508,1.231,6.841,1.231
			c8.183,0,15.594-5.151,18.443-12.827l40.624-109.45l5.273,1.956c0.407,0.149,0.843,0.172,1.259,0.08
			c0.151-0.034,0.3-0.081,0.443-0.146c0.403-0.186,0.752-0.477,0.965-0.858c0.415-0.743,4.714-12.779,4.714-12.779
			C119.849,19.27,119.264,18,118.117,17.575z M80.93,89.044l-18.939,51.029c-2.208,5.94-7.944,9.93-14.28,9.93
			c-1.804,0-3.586-0.32-5.628-1.075c-3.814-1.414-6.847-4.232-8.542-7.927c-1.696-3.699-1.85-7.836-0.434-11.652l1.249-3.365
			L74.499,17.817c0.427-1.148-0.158-2.428-1.31-2.853l-4.505-1.675l3-8.213l42.818,15.894l-3.001,8.213l-18.022-6.687
			c-1.147-0.43-2.426,0.16-2.854,1.31c-0.427,1.148,0.161,2.428,1.31,2.853l10.679,3.963L82.476,84.88"/>
		<g>
			<path fill="#00A8AD" d="M82.586,71.035c-3.46,0.714-7.292-1.602-11.28-3.209c-3.438-1.386-6.992-2.246-10.524-0.184
				c-1.298,0.759-2.26,2.01-2.789,3.418l-22.024,58.639c-1.167,3.135-1.045,6.53,0.351,9.565c1.41,3.075,3.977,5.382,7.438,6.67
				c1.405,0.524,2.866,0.789,4.349,0.789c5.2,0,9.909-3.278,11.721-8.152l24.577-65.495C84.842,71.911,83.805,70.783,82.586,71.035z
				"/>
			<circle fill="#00A8AD" cx="74.233" cy="55.094" r="5.925"/>
			<circle fill="#00A8AD" cx="87.533" cy="44.125" r="3.978"/>
			<circle fill="#00A8AD" cx="83.001" cy="29.609" r="2.843"/>
		</g>
	</g>
</g>
</svg>
