<?xml version="1.0" encoding="UTF-8"?>
<svg width="727px" height="181px" viewBox="0 0 727 181" version="1.1" xmlns="http://www.w3.org/2000/svg" xmlns:xlink="http://www.w3.org/1999/xlink">
    <!-- Generator: Sketch 43.2 (39069) - http://www.bohemiancoding.com/sketch -->
    <title>portodigital</title>
    <desc>Created with Sketch.</desc>
    <defs></defs>
    <g id="Page-1" stroke="none" stroke-width="1" fill="none" fill-rule="evenodd">
        <g id="portodigital">
            <path d="M304.8,43.5 C298.8,44.8 293.6,47.9 289.2,52.8 C283.2,59.5 280.1,67.9 280.1,78.1 C280.1,86.7 282.5,93.5 287.4,98.5 C292.3,103.6 298.8,106.1 307,106.1 C316.1,106.1 323.7,102.7 329.8,95.9 C335.9,89.1 338.9,80.7 338.9,70.6 C338.9,62.1 336.5,55.3 331.6,50.3 C328,46.6 324.1,44.3 318.7,43.3 C314.3,42.3 309.3,42.2 304.8,43.5 L304.8,43.5 Z M676.2,96.5 L685.5,26.2 L693.5,26.2 C704.9,26.2 704,35.8 703.8,39.3 L695,105.2 L716.6,105.2 C728,105.2 727.1,112.8 726.8,117.4 L726,123.2 L661.2,123.2 L657.2,101.6 L620.8,101.6 L609.9,123.4 L567.8,123.4 L578.8,44.5 L559.1,44.5 L550.2,112.6 C549.4,116.9 549.8,123.5 537.7,123.5 L528.7,123.5 L531.5,101.1 C529.5,104.8 527.2,108.1 524.4,111.1 C515.8,120.3 504.2,124.9 489.6,124.8 C475.1,124.8 463.6,120.6 455,112.3 C447.2,104.8 443,94.9 442.2,82.8 L438.3,112.2 C437.1,116.5 435.5,123.5 425.3,123.5 L416.5,123.5 L421.2,89.8 C420.6,91.9 419.8,93.8 418.9,95.7 C415.7,102.4 410.7,108.2 403.8,113.1 C399.2,116.4 393.9,118.8 387.8,120.2 C381.7,121.6 372.3,122.3 359.5,122.3 L352,122.3 L334.5,122.3 L334.7,120.9 C338.4,118.8 341.9,116.3 345,113.5 C345.8,112.8 346.6,111.9 347.5,111.1 C348.3,110.3 349.1,109.4 349.9,108.5 L349.9,108.5 C352.1,106 354.1,103.2 355.8,100.2 C356.4,99.1 357,98 357.6,96.8 L356.5,105.3 L357.7,105.3 C362.3,105.5 365.5,105.6 367.5,105.6 C374.5,105.6 380,105 384,103.8 C388,102.6 391.4,100.6 394.1,97.8 C397.1,94.7 399.3,90.9 400.9,86.3 C402.4,81.7 403.2,76.5 403.2,70.8 C403.2,61.4 401.2,54.6 397.2,50.5 C393.2,46.3 386.7,44.2 377.5,44.2 L364.6,44.2 L362.6,59.1 C361.5,53.2 359.4,47.8 356.4,43 C355.5,41.6 354.5,40.1 353.3,38.7 C351.7,36.8 350,35 348.2,33.4 C352.6,27.3 360.2,26.1 367.1,26.2 C378.4,26.4 386.4,26.6 391.1,27.3 C395.8,28 399.8,29.2 402.9,30.9 C409.6,34.4 414.7,40.2 418.3,47.1 C421.8,53.8 423.5,61.8 423.6,71 L427.3,41.6 L447.3,41.6 L444.9,60.6 C445.1,60 445.3,59.4 445.5,58.8 C448,52.2 451.5,46.4 456,41.2 C460.6,35.9 466.3,31.8 473,29 C479.8,26.2 487.2,24.8 495.4,24.8 C504.7,24.8 512.6,26.5 519.2,29.9 C525.8,33.2 531.2,38.3 535.3,45.1 L528.7,49.8 C524.2,52.1 519.6,52.7 514.8,49.9 C508.4,44.6 504.5,41.8 495.2,41.8 C485.6,41.8 477.8,45.3 471.5,52.3 C465.3,59.4 462.1,68.2 462.1,78.9 C462.1,87.8 464.7,94.8 469.8,100 C474.9,105.2 481.8,107.9 490.4,107.9 C496.3,107.9 501.5,106.3 505.9,103 C510.3,99.7 513.5,95.2 515.5,89.4 L492.8,89.4 L493.8,81.5 C495,73.1 501.6,72.5 505.4,72.7 L534.8,72.7 L539,40.7 C540.4,30.8 542.7,27.3 555.7,26.8 L631.5,26.8 L624.3,41 C621,45.6 619.9,45 613.7,45 L598.3,45 L588,123.2 L637.5,26.2 L659.3,26.2 L676.2,96.5 L676.2,96.5 Z M653.4,86 L646.5,44.5 L628.5,85.9 L653.4,86 L653.4,86 Z M108,125.4 C93.7,125.4 82.3,121.2 73.7,112.9 C65.1,104.6 60.8,93.5 60.8,79.6 L60.8,78.4 C60.3,78.9 59.7,79.3 59.2,79.7 C56.2,82.1 52.6,83.8 48.4,84.9 C44.3,85.9 38.2,86.4 30.3,86.4 L25.7,86.4 L20.8,123 L0.7,123 L11.7,40.9 C14,25.5 27.5,27.5 32,27.5 C41,27.5 47.3,28 51.1,28.9 C54.8,29.9 58.1,31.5 60.9,33.7 C64,36.1 66.4,39.2 68,42.8 C68.9,44.7 69.5,46.8 69.9,49 C71.4,46.7 73,44.6 74.8,42.5 C79.8,36.9 85.8,32.6 92.7,29.7 C99.6,26.7 107.1,25.2 115.2,25.2 C129.5,25.2 140.9,29.3 149.5,37.6 C157.3,45.1 161.6,54.8 162.3,66.7 L165.4,43.2 C167.7,26.6 180.9,27.5 187.3,27.5 C195.6,27.5 201.6,28 205.2,28.8 C208.9,29.7 212.1,31.1 214.9,33.2 C215.3,33.5 215.7,33.8 216,34.1 L216,33.7 C216.7,25.9 219.8,25.9 227.4,25.9 L312.9,25.9 C327,26 338,30 346.3,38 C354.6,46 358.8,56.5 358.8,69.6 C358.8,76.5 357.7,82.9 355.6,88.9 C353.5,94.9 350.4,100.3 346.4,104.9 C341.3,110.8 335.4,115.2 328.5,118.3 C321.7,121.3 314.2,122.8 306.1,122.8 C292.3,122.8 281.2,118.8 272.9,110.7 C264.6,102.6 260.4,91.9 260.4,78.5 C260.4,72 261.6,65.6 263.9,59.4 C266,53.8 268.9,48.9 272.6,44.3 L259.7,44.3 L249.5,123.2 L229.5,123.2 L239.7,44.3 L222.9,44.3 C223.8,46.9 224.2,49.6 224.2,52.6 C224.2,59.9 222.2,65.9 218,70.7 C213.9,75.5 208,78.7 200.3,80.4 L222,123.3 L200.1,123.3 L180.4,79.3 L174.8,123.3 L154.7,123.3 L158.9,90.1 L158.8,90.5 C156.6,96.7 153.4,102.3 149.3,107.1 C144,113.2 137.9,117.8 130.8,120.9 C124.1,123.8 116.4,125.4 108,125.4 L108,125.4 Z M182.1,68.8 C187.8,68.8 195.7,69.4 200.4,65.7 C203.1,63.6 204.5,60.1 204.5,55.1 C204.5,50.8 203.4,47.8 201.1,46 C197.1,42.9 190.3,43.4 185.4,43.4 L182.1,68.8 L182.1,68.8 Z M27.9,70.1 C33.7,70.1 41.6,70.7 46.4,66.8 C49.1,64.6 50.5,60.9 50.5,55.7 C50.5,51.3 49.4,48.2 47.1,46.4 C43.1,43.2 36.2,43.7 31.4,43.7 L27.9,70.1 L27.9,70.1 Z M114.2,41.1 C104.8,41.1 96.9,44.6 90.6,51.5 C84.4,58.4 81.2,67.1 81.2,77.7 C81.2,86.5 83.7,93.6 88.8,98.8 C93.9,104 100.6,106.7 109.1,106.7 C118.5,106.7 126.4,103.2 132.7,96.2 C139,89.2 142.1,80.4 142.1,70 C142.1,61.2 139.6,54.2 134.6,49 C129.5,43.7 122.7,41.1 114.2,41.1 Z" id="Shape" fill="#A1A1A4" fill-rule="nonzero"></path>
            <path d="M469.1,17 L430.2,32.8 C428.5,28.2 427.6,23.1 427.5,17.9 C427.4,11.8 428.4,6 430.4,0.7 L469.1,17 Z" id="Shape" fill="#EE3124"></path>
            <g id="Group" transform="translate(409.000000, 143.000000)" fill-rule="nonzero" fill="#EE3124">
                <path d="M6.2,0.1 L11.8,0.1 C17.3,0.1 21.2,1.5 21.2,6.9 C21.2,15.1 13.9,15.7 8.8,15.7 L6.6,15.7 L4.1,28.7 L0.7,28.7 L6.2,0.1 Z M7,13.5 L8.5,13.5 C13.2,13.5 17.7,13.1 17.7,6.7 C17.7,2.2 13.4,2.2 10.7,2.2 L9.2,2.2 L7,13.5 Z" id="Shape"></path>
                <path d="M31.4,25.3 L31.4,25.3 C30.7,26.5 28.9,29.1 25.4,29.1 C21.4,29.1 19.9,26 19.9,22.1 C19.9,16.1 22.4,8.5 28.7,8.5 C32.3,8.5 33.5,11.2 33.9,12.1 L34,12.1 L34.5,8.9 L37.6,8.9 L33.8,28.6 L30.7,28.6 L31.4,25.3 Z M26.4,27.2 C31.5,27.2 32.7,18.8 32.7,15.9 C32.7,14.1 32.1,10.4 29,10.4 C25,10.4 23.2,17.6 23.2,21.9 C23.3,24 23.7,27.2 26.4,27.2 Z" id="Shape"></path>
                <path d="M44.4,8.9 L47.5,8.9 L46.7,13.1 L46.8,13.2 C48.5,10.3 49.9,8.5 54,8.5 L53.3,12.1 L52.6,12.1 C47,12.1 46.2,16.1 45.6,19.4 L43.9,28.6 L40.8,28.6 L44.4,8.9 Z" id="Shape"></path>
                <path d="M65.1,25.3 L65.1,25.3 C64.4,26.5 62.7,29.1 59.1,29.1 C55.1,29.1 53.7,26 53.7,22.1 C53.7,16.1 56.2,8.5 62.5,8.5 C66.2,8.5 67.3,11.2 67.7,12.1 L67.8,12.1 L68.4,8.9 L71.5,8.9 L65.9,37.5 L62.8,37.5 L65.1,25.3 Z M60.1,27.2 C65.2,27.2 66.4,18.9 66.4,15.9 C66.4,14 65.8,10.4 62.7,10.4 C58.7,10.4 57,17.5 57,21.8 C57,24.1 57.5,27.2 60.1,27.2 Z" id="Shape"></path>
                <path d="M86.6,24.4 L86.6,24.4 C85.8,25.8 83.5,29.2 79.9,29.2 C76.6,29.2 75,27.1 75,25 C75,24.2 75.1,23.4 75.2,22.6 L77.9,9 L81,9 L78.6,21.1 C78.4,22.1 78.2,23 78.2,23.9 C78.2,25.5 79.2,26.6 81,26.6 C85.5,26.6 87.4,19.9 87.8,17.7 L89.5,9 L92.6,9 L88.8,28.7 L85.7,28.7 L86.6,24.4 Z" id="Shape"></path>
                <path d="M108.6,28.3 C107.1,28.8 105.5,29.1 104,29.1 C99.7,29.1 96,27.3 96,20.6 C96,14.1 99.1,8.5 105.3,8.5 C109.2,8.5 111.5,10.6 111.5,14.3 C111.5,15 111.4,15.8 111.3,16.5 L99.7,16.5 C99.5,17.5 99.4,18.4 99.4,19.4 C99.4,24.2 101.9,27.1 105.6,27.1 C106.8,27.1 107.9,26.8 109,26.4 L108.6,28.3 Z M108.4,14.6 C108.4,14.3 108.5,13.9 108.5,13.6 C108.5,11.9 107.1,10.4 105,10.4 C101.5,10.4 100.5,13.3 100.1,14.6 L108.4,14.6 Z" id="Shape"></path>
                <polygon id="Shape" points="133.1 2.5 126.4 2.5 126.9 0.1 143.7 0.1 143.2 2.5 136.5 2.5 131.4 28.7 128 28.7"></polygon>
                <path d="M153.8,28.4 C152.3,28.9 150.7,29.2 149.2,29.2 C144.9,29.2 141.2,27.4 141.2,20.7 C141.2,14.2 144.3,8.6 150.5,8.6 C154.4,8.6 156.7,10.7 156.7,14.4 C156.7,15.1 156.6,15.9 156.5,16.6 L144.9,16.6 C144.7,17.6 144.6,18.5 144.6,19.5 C144.6,24.3 147.1,27.2 150.8,27.2 C152,27.2 153.1,26.9 154.2,26.5 L153.8,28.4 Z M153.6,14.7 C153.6,14.4 153.7,14 153.7,13.7 C153.7,12 152.3,10.5 150.2,10.5 C146.7,10.5 145.7,13.4 145.3,14.7 L153.6,14.7 Z" id="Shape"></path>
                <path d="M172.1,28.5 C170.7,28.8 169.2,29.1 167.8,29.1 C162.3,29.1 159.5,26.4 159.5,20.9 C159.5,14.2 162.8,8.5 169.2,8.5 C173,8.5 175.2,10.5 175.2,13.3 C175.2,13.9 175.1,14.5 175,15 L171.4,15 C171.5,14.5 171.6,14 171.6,13.4 C171.6,12 171.2,10.3 168.7,10.3 C165.3,10.3 162.8,14.6 162.8,19.7 C162.8,23.3 164.2,27.1 168.9,27.1 C170.1,27.1 171.3,26.8 172.4,26.4 L172.1,28.5 Z" id="Shape"></path>
                <path d="M180.6,9 L183.7,9 L182.8,13.7 L182.9,13.8 C183.7,12.2 186.1,8.6 190,8.6 C193,8.6 194.4,10.7 194.4,12.8 C194.4,13.6 194.3,14.4 194.2,15.2 L191.5,28.8 L188.4,28.8 L190.8,16.7 C191,15.7 191.2,14.8 191.2,13.9 C191.2,12.3 190.3,11.2 188.8,11.2 C184,11.2 182,17.9 181.5,20.1 L179.8,28.8 L176.7,28.8 L180.6,9 Z" id="Shape"></path>
                <path d="M198.4,21.5 C198.4,15.1 201.5,8.5 208.7,8.6 C213.5,8.6 215.8,11.5 215.8,16.1 C215.8,22.8 212.7,29.2 205.5,29.2 C200.5,29.2 198.4,25.9 198.4,21.5 Z M205.9,27.3 C210.5,27.3 212.4,20.4 212.4,15.5 C212.4,12.4 211,10.5 208.3,10.5 C203.8,10.5 201.8,16.7 201.8,21.7 C201.8,24.9 202.9,27.3 205.9,27.3 Z" id="Shape"></path>
                <polygon id="Shape" points="224.6 0.2 227.7 0.2 222.1 28.8 219 28.8"></polygon>
                <path d="M229.1,21.5 C229.1,15.1 232.2,8.5 239.4,8.6 C244.2,8.6 246.5,11.5 246.5,16.1 C246.5,22.8 243.4,29.2 236.2,29.2 C231.1,29.2 229.1,25.9 229.1,21.5 Z M236.6,27.3 C241.2,27.3 243.1,20.4 243.1,15.5 C243.1,12.4 241.7,10.5 239,10.5 C234.5,10.5 232.5,16.7 232.5,21.7 C232.5,24.9 233.6,27.3 236.6,27.3 Z M241.4,0.1 L245,0.1 L241.1,5.6 L238.5,5.6 L241.4,0.1 Z" id="Shape"></path>
                <path d="M263.7,28.2 C263,32 261.8,37.6 253.9,37.6 C250.6,37.6 249.8,37.3 247.9,36.7 L248.6,33.3 C250,34.5 251.3,35.5 254.2,35.5 C259.1,35.5 260.1,30.5 260.6,28.2 L261.2,25.3 L261.1,25.2 C260.2,26.9 258.9,28.8 255,28.8 C251.8,28.8 249.7,25.8 249.7,22.1 C249.7,16 251.8,8.7 259,8.7 C262.3,8.7 263.2,11.4 263.5,12.5 L263.6,12.5 L264.2,9.2 L267.3,9.2 L263.7,28.2 Z M256.2,26.8 C260.8,26.8 262.6,19.5 262.6,16.8 C262.6,14.1 262.1,10.4 259.3,10.4 C254.5,10.4 253.1,17.5 253.1,21.4 C253.2,24 253.8,26.8 256.2,26.8 Z" id="Shape"></path>
                <path d="M274.2,9.1 L277.3,9.1 L273.4,28.8 L270.3,28.8 L274.2,9.1 Z M275.6,0.2 L279.3,0.2 L278.6,3.9 L274.9,3.9 L275.6,0.2 Z" id="Shape"></path>
                <path d="M293.2,28.6 C291.8,28.9 290.3,29.2 288.9,29.2 C283.4,29.2 280.6,26.5 280.6,21 C280.6,14.3 283.9,8.6 290.3,8.6 C294.1,8.6 296.3,10.6 296.3,13.4 C296.3,14 296.2,14.6 296.1,15.1 L292.5,15.1 C292.6,14.6 292.7,14.1 292.7,13.5 C292.7,12.1 292.3,10.4 289.8,10.4 C286.4,10.4 283.9,14.7 283.9,19.8 C283.9,23.4 285.3,27.2 290,27.2 C291.2,27.2 292.4,26.9 293.5,26.5 L293.2,28.6 Z" id="Shape"></path>
                <path d="M298.1,21.6 C298.1,15.2 301.2,8.6 308.4,8.7 C313.2,8.7 315.5,11.6 315.5,16.2 C315.5,22.9 312.4,29.3 305.2,29.3 C300.1,29.2 298.1,26 298.1,21.6 Z M305.6,27.3 C310.2,27.3 312.1,20.4 312.1,15.5 C312.1,12.4 310.7,10.5 308,10.5 C303.5,10.5 301.5,16.7 301.5,21.7 C301.5,25 302.5,27.3 305.6,27.3 Z" id="Shape"></path>
            </g>
        </g>
    </g>
</svg>